<svg width="256" height="256" viewBox="0 0 256 256" fill="none" xmlns="http://www.w3.org/2000/svg">
<g clip-path="url(#clip0)">
<rect width="256" height="256" fill="white"/>
<path d="M205.929 155.132C206.789 155.676 207.564 156.383 208.256 157.255C208.948 158.126 209.577 159.018 210.145 159.929C210.753 160.964 211.298 162.02 211.782 163.095L212.801 166.255C213.081 167.122 213.279 167.948 213.395 168.731C213.551 169.639 213.461 170.42 213.125 171.076C209.604 173.306 205.692 175.389 201.391 177.324C197.13 179.383 193.097 181.3 189.291 183.075C184.866 185.05 180.483 186.943 176.142 188.754C175.183 190.021 174.267 191 173.396 191.692C172.524 192.384 171.719 192.644 170.979 192.472C170.732 192.552 170.324 192.136 169.756 191.224L169.013 191.464C164.592 193.028 160.356 194.531 156.307 195.974C152.877 197.217 149.469 198.317 146.084 199.272C142.614 200.392 139.93 201.189 138.031 201.665C137 201.861 136.016 201.357 135.081 200.154C134.145 198.951 133.462 197.256 133.03 195.07C132.474 192.923 132.292 190.451 132.484 187.652C132.676 184.854 133.527 181.98 135.038 179.03C138.128 178.854 141.262 178.39 144.44 177.638C147.658 177.011 150.546 176.421 153.104 175.869C156.282 175.117 159.234 174.302 161.96 173.422L162.89 173.122C161.167 168.206 159.326 162.711 157.367 156.639C155.448 150.691 153.551 144.599 151.676 138.363C149.717 132.291 147.84 126.261 146.044 120.273C144.289 114.409 142.734 109.164 141.379 104.539C139.02 97.2281 136.981 90.9083 135.262 85.5798C133.583 80.3752 131.958 75.9741 130.387 72.3764C128.855 68.9027 127.358 66.1706 125.895 64.1799C124.432 62.1892 122.799 60.7322 120.996 59.8089C121.08 59.645 121.332 59.1533 121.752 58.3338C122.007 57.4304 122.511 56.447 123.262 55.3836C123.89 54.3603 124.785 53.3189 125.949 52.2595C126.988 51.2402 128.333 50.5326 129.984 50.1367C134.113 48.9413 137.589 49.325 140.411 51.2876C143.234 53.2502 145.776 56.466 148.039 60.9351C150.301 65.4041 152.45 71.0044 154.485 77.736C156.396 84.5076 158.483 92.2485 160.746 100.959C162.253 106.903 163.883 113.013 165.634 119.289C167.261 125.605 168.87 131.653 170.461 137.433C171.969 143.377 173.398 148.868 174.749 153.904C176.141 159.065 177.312 163.544 178.264 167.341C181.322 166.218 184.402 164.951 187.504 163.54C190.274 162.372 193.272 161.063 196.498 159.612C199.724 158.161 202.867 156.667 205.929 155.132Z" fill="black"/>
<path d="M100.598 56.5128C105.476 57.3433 110.415 58.9767 115.415 61.4131C120.416 63.8495 124.803 67.1722 128.577 71.381C132.502 75.4833 135.406 80.5347 137.29 86.535C139.196 92.407 139.483 99.258 138.149 107.088C136.947 114.148 134.43 120.786 130.598 127.002C126.894 133.239 122.134 138.703 116.316 143.392C110.627 148.102 104.042 151.868 96.5617 154.689C89.1029 157.382 81.0815 158.723 72.4977 158.715C71.6016 163.978 71.0182 168.567 70.7477 172.484C70.2641 176.1 69.8679 179.202 69.5591 181.791C69.4006 184.274 69.2325 186.425 69.0549 188.243C69.0057 190.084 68.9892 191.732 69.0055 193.188C68.9999 194.772 69.0695 196.303 69.2142 197.78C66.3191 199.269 63.6399 200.265 61.1764 200.771C58.7129 201.276 56.5498 201.568 54.6872 201.647C52.546 201.811 50.5987 201.611 48.8454 201.049C48.4877 199.271 48.227 197.311 48.0632 195.17C47.8776 193.157 47.9297 190.524 48.2193 187.271C48.6374 184.041 49.2616 179.986 50.0921 175.109C50.9445 170.102 52.1547 163.77 53.7228 156.112C52.7178 155.809 51.6376 155.559 50.4824 155.363C49.349 155.038 48.2907 154.659 47.3075 154.228C46.7587 152.021 46.487 150.126 46.4926 148.541C46.4981 146.957 46.5883 145.652 46.7632 144.625C46.9817 143.341 47.2849 142.336 47.6728 141.61C48.6778 141.913 49.6828 142.216 50.6879 142.52C51.7148 142.694 52.6775 142.858 53.576 143.011C54.581 143.315 55.5328 143.543 56.4313 143.696C57.6934 137.835 58.9883 131.781 60.3159 125.535C61.7938 119.183 63.1105 113.001 64.2661 106.99C65.55 101.001 66.7261 95.2572 67.7942 89.7596C69.0126 84.1554 70.0575 79.1821 70.9289 74.8397C66.641 76.7512 62.6712 79.5094 59.0195 83.1143C55.4962 86.741 52.8263 91.1735 51.0098 96.4117C49.3848 95.8708 48.104 94.8602 47.1673 93.3799C46.2525 91.7713 45.5302 90.1954 45.0004 88.6523C44.386 86.8306 43.9328 84.8382 43.6406 82.6752C43.4141 80.127 43.8294 77.6882 44.8864 75.3586C45.837 72.8788 47.1398 70.6571 48.795 68.6935C50.472 66.6016 52.2869 64.8633 54.2397 63.4787C56.2144 61.9658 58.0593 60.827 59.7745 60.0624C62.8826 58.8745 65.9578 57.8792 69.0003 57.0764C72.0647 56.1453 75.4704 55.5364 79.2175 55.2499C80.8699 54.0783 82.6288 53.057 84.4942 52.1858C86.4879 51.3366 88.341 50.9256 90.0534 50.953C92.1946 50.7893 93.1204 52.3338 92.8307 55.5865C94.0078 55.6548 95.2382 55.7983 96.5218 56.0168C97.8272 56.107 99.186 56.2723 100.598 56.5128ZM74.9564 144.274C78.597 143.837 82.6459 142.942 87.1032 141.587C91.5604 140.233 95.8702 138.193 100.033 135.468C104.217 132.614 107.954 128.892 111.246 124.301C114.537 119.71 116.784 113.885 117.986 106.825C118.904 101.434 118.717 96.7129 117.425 92.6626C116.284 88.5058 114.434 85.0208 111.875 82.2076C109.338 79.2661 106.36 76.9759 102.94 75.337C99.6712 73.5917 96.3038 72.424 92.838 71.8339C92.1962 71.7246 91.5544 71.6153 90.9126 71.506C90.2708 71.3968 89.6181 71.3517 88.9544 71.3707C87.87 75.4127 86.9234 79.8084 86.1148 84.5578C85.5684 87.7668 84.8376 91.6709 83.9224 96.27C83.0291 100.741 82.0702 105.597 81.0458 110.838C80.0214 116.079 78.9532 121.576 77.8414 127.331C76.8579 133.107 75.8962 138.755 74.9564 144.274Z" fill="black"/>
</g>
<defs>
<clipPath id="clip0">
<rect width="256" height="256" fill="white"/>
</clipPath>
</defs>
</svg>
